<?xml version="1.0" encoding="UTF-8" standalone="no"?>
<svg
   width="256"
   height="256"
   viewBox="0 0 48 48"
   version="1.1"
   id="svg1"
   xmlns="http://www.w3.org/2000/svg"
   xmlns:svg="http://www.w3.org/2000/svg">
  <g
     id="layer1">
    <path
       d="M 33.656836,58.486275 V 34.078463 q 0,-4.539258 2.75332,-7.416602 2.75332,-2.877344 7.14375,-2.877344 5.208984,0 8.011914,4.787305 1.711523,-2.579687 3.671094,-3.671094 1.95957,-1.116211 4.836914,-1.116211 4.564062,0 6.994921,2.877344 2.43086,2.877344 2.43086,8.284766 V 58.486275 H 59.428906 V 36.459713 q 0,-1.63711 -0.272852,-2.158008 -0.248047,-0.545703 -1.041797,-0.545703 -1.488281,0 -1.488281,2.530078 V 58.486275 H 46.555273 V 36.459713 q 0,-1.612305 -0.272851,-2.158008 -0.272852,-0.545703 -1.066602,-0.545703 -1.488281,0 -1.488281,2.703711 v 22.026562 z"
       id="M"
       style="fill:#116ac9;stroke-width:0.264583"
       transform="translate(-27.30242,-16.902924)"
       aria-label="M" />
  </g>
</svg>