<?xml version="1.0" encoding="UTF-8"?>
<svg version="1.1" xmlns="http://www.w3.org/2000/svg" width="256" height="256" viewBox="0 0 256 256">
<path d="M0 0 C8.58 0 17.16 0 26 0 C26 5.94 26 11.88 26 18 C29.80149939 18.95037485 32.7115776 19.1208429 36.60449219 19.11352539 C37.25856552 19.11367142 37.91263885 19.11381744 38.58653259 19.1139679 C40.74001426 19.11327341 42.89340852 19.10550283 45.046875 19.09765625 C46.54331414 19.09579042 48.03975388 19.09436729 49.53619385 19.09336853 C53.46858415 19.08955635 57.40093732 19.07973717 61.33331299 19.06866455 C65.34850563 19.05842249 69.3637043 19.05386492 73.37890625 19.04882812 C81.25262117 19.03811372 89.12630596 19.02105291 97 19 C97.33 21.31 97.66 23.62 98 26 C99.11375 26.185625 100.2275 26.37125 101.375 26.5625 C102.57125 27.036875 103.7675 27.51125 105 28 C106.4375 31.625 106.4375 31.625 107 35 C109.97 35.495 109.97 35.495 113 36 C113.66 38.31 114.32 40.62 115 43 C117.31 43.33 119.62 43.66 122 44 C121.98259766 45.49853516 121.98259766 45.49853516 121.96484375 47.02734375 C121.95582031 48.31769531 121.94679687 49.60804687 121.9375 50.9375 C121.92009766 52.86916016 121.92009766 52.86916016 121.90234375 54.83984375 C121.63467451 57.86298403 121.63467451 57.86298403 123 59 C125.32817964 59.36760731 127.6618385 59.70241581 130 60 C130.02332651 82.93027723 130.04097795 105.86055252 130.05181217 128.7908392 C130.05697566 139.43697951 130.06401935 150.08311246 130.07543945 160.72924805 C130.08538469 170.00486921 130.09185304 179.28048505 130.09408849 188.5561114 C130.09539588 193.47067681 130.09848345 198.38522698 130.10573006 203.29978752 C130.11248775 207.91994348 130.11461748 212.54007783 130.11310768 217.16023827 C130.11338412 218.86106737 130.11539073 220.56189716 130.11920547 222.26272202 C130.12413881 224.57454337 130.12299964 226.88628181 130.12025452 229.19810486 C130.12163721 231.14354895 130.12163721 231.14354895 130.12304783 233.12829494 C130 236 130 236 129 237 C127.01112506 237.09930533 125.01869583 237.12799462 123.02734375 237.12939453 C121.74931885 237.13254669 120.47129395 237.13569885 119.15454102 237.13894653 C117.74886033 237.13715675 116.34317995 237.1351058 114.9375 237.1328125 C113.50642887 237.13348558 112.07535785 237.13445564 110.64428711 237.13571167 C107.64142776 237.13718844 104.6385981 237.13503476 101.63574219 237.13037109 C97.77847429 237.12467381 93.92127596 237.12795292 90.06401062 237.13394356 C87.10786409 237.13754974 84.15173417 237.13641032 81.19558716 237.13381577 C79.77295931 237.13314665 78.35032997 237.13397437 76.92770386 237.13629532 C74.94268826 237.13882274 72.95766741 237.13429042 70.97265625 237.12939453 C69.27508179 237.12820114 69.27508179 237.12820114 67.54321289 237.12698364 C65 237 65 237 64 236 C63.54540142 233.34536879 63.29756762 230.67810862 63 228 C61.58297487 228.14230808 60.1663904 228.28900746 58.75 228.4375 C57.96109375 228.51871094 57.1721875 228.59992188 56.359375 228.68359375 C54.17635361 228.97634993 52.1226818 229.42064419 50 230 C49.67 232.31 49.34 234.62 49 237 C41.74 237 34.48 237 27 237 C25.99057812 241.03768752 25.88736085 244.63770249 25.9375 248.75 C25.9684375 252.33875 25.9684375 252.33875 26 256 C17.42 256 8.84 256 0 256 C0 250.06 0 244.12 0 238 C-3.20987416 237.19753146 -5.33633522 236.88065091 -8.546875 236.90234375 C-9.39121094 236.90556641 -10.23554687 236.90878906 -11.10546875 236.91210938 C-12.41451172 236.92467773 -12.41451172 236.92467773 -13.75 236.9375 C-14.63816406 236.94201172 -15.52632813 236.94652344 -16.44140625 236.95117188 C-18.62767329 236.962926 -20.81380179 236.97935751 -23 237 C-23.495 233.535 -23.495 233.535 -24 230 C-26.91499943 229.20439236 -29.74561419 228.74677501 -32.75 228.4375 C-33.54921875 228.35371094 -34.3484375 228.26992187 -35.171875 228.18359375 C-35.77515625 228.12300781 -36.3784375 228.06242188 -37 228 C-37.144375 229.299375 -37.28875 230.59875 -37.4375 231.9375 C-37.875 235.875 -37.875 235.875 -39 237 C-40.98887494 237.09930533 -42.98130417 237.12799462 -44.97265625 237.12939453 C-46.25068115 237.13254669 -47.52870605 237.13569885 -48.84545898 237.13894653 C-50.25113967 237.13715675 -51.65682005 237.1351058 -53.0625 237.1328125 C-54.49357113 237.13348558 -55.92464215 237.13445564 -57.35571289 237.13571167 C-60.35857224 237.13718844 -63.3614019 237.13503476 -66.36425781 237.13037109 C-70.22152571 237.12467381 -74.07872404 237.12795292 -77.93598938 237.13394356 C-80.89213591 237.13754974 -83.84826583 237.13641032 -86.80441284 237.13381577 C-88.22704069 237.13314665 -89.64967003 237.13397437 -91.07229614 237.13629532 C-93.05731174 237.13882274 -95.04233259 237.13429042 -97.02734375 237.12939453 C-98.72491821 237.12820114 -98.72491821 237.12820114 -100.45678711 237.12698364 C-103 237 -103 237 -104 236 C-104.09764835 233.621922 -104.12997133 231.27292872 -104.12025452 228.89439392 C-104.12110894 228.14216586 -104.12196337 227.3899378 -104.12284368 226.61491495 C-104.12450074 224.07520285 -104.11897345 221.5355557 -104.11352539 218.99584961 C-104.11324354 217.18291729 -104.11340121 215.36998486 -104.1139679 213.55705261 C-104.11425596 208.61924287 -104.10835781 203.68145719 -104.10139394 198.74365306 C-104.09516186 193.58932157 -104.09455672 188.43498958 -104.09336853 183.28065491 C-104.09025478 173.51295908 -104.08204081 163.74527438 -104.07201904 153.97758347 C-104.06085925 142.86048188 -104.05534779 131.74337978 -104.05032361 120.62627399 C-104.03985823 97.75084314 -104.02225795 74.87542219 -104 52 C-100.535 51.505 -100.535 51.505 -97 51 C-96.814375 49.88625 -96.62875 48.7725 -96.4375 47.625 C-95.7259375 45.830625 -95.7259375 45.830625 -95 44 C-91.375 42.5625 -91.375 42.5625 -88 42 C-87.67 40.02 -87.34 38.04 -87 36 C-84.69 35.34 -82.38 34.68 -80 34 C-79.67 32.02 -79.34 30.04 -79 28 C-76.69 27.34 -74.38 26.68 -72 26 C-71.67 23.69 -71.34 21.38 -71 19 C-47.9 19 -24.8 19 -1 19 C0.00942188 14.96231248 0.11263915 11.36229751 0.0625 7.25 C0.041875 4.8575 0.02125 2.465 0 0 Z M51 84 C48.65026182 85.89755144 48.65026182 85.89755144 48.875 89.125 C48.936875 90.548125 48.936875 90.548125 49 92 C48.05125 91.95875 47.1025 91.9175 46.125 91.875 C42.89755144 91.65026182 42.89755144 91.65026182 41 94 C40.68801461 96.88087923 40.68801461 96.88087923 40.734375 100.25 C40.73179687 101.4978125 40.72921875 102.745625 40.7265625 104.03125 C40.73429688 105.3409375 40.74203125 106.650625 40.75 108 C40.74226562 109.3096875 40.73453125 110.619375 40.7265625 111.96875 C40.72914063 113.2165625 40.73171875 114.464375 40.734375 115.75 C40.73663086 116.89984375 40.73888672 118.0496875 40.74121094 119.234375 C40.71656324 122.14199832 40.71656324 122.14199832 43 124 C45.65929827 124.11981454 48.22108859 124.14000361 50.875 124.0625 C59.00635395 123.86612562 59.00635395 123.86612562 63 125 C65.63851111 122.36148889 64.48720876 115.29258592 64.61254883 111.69921875 C64.68695743 109.64001535 64.77765694 107.5819437 64.86914062 105.5234375 C64.91619141 104.22921875 64.96324219 102.935 65.01171875 101.6015625 C65.05772217 100.40869629 65.10372559 99.21583008 65.15112305 97.98681641 C65.24611851 94.81456926 65.24611851 94.81456926 63 92 C59.91634129 91.7497843 59.91634129 91.7497843 57 92 C57.04125 91.05125 57.0825 90.1025 57.125 89.125 C57.34973818 85.89755144 57.34973818 85.89755144 55 84 C53.68 84 52.36 84 51 84 Z M-37 131 C-39.0778871 133.0778871 -38.30626746 137.47071972 -38.38671875 140.33984375 C-38.41224319 141.17713516 -38.43776764 142.01442657 -38.46406555 142.87709045 C-38.51616517 144.65162831 -38.56558093 146.42624664 -38.61254883 148.20092773 C-38.68709783 150.92281632 -38.77773026 153.6438666 -38.86914062 156.36523438 C-38.91765676 158.08590987 -38.96521474 159.8066127 -39.01171875 161.52734375 C-39.04077805 162.34508774 -39.06983734 163.16283173 -39.09977722 164.00535583 C-39.14447457 166.00334742 -39.08157034 168.00317389 -39 170 C-37.01461069 172.44913022 -37.01461069 172.44913022 -33.125 172.0625 C-32.41472656 172.041875 -31.70445313 172.02125 -30.97265625 172 C-28.84714543 172 -27.03902927 172.4290718 -25 173 C-22.9221129 170.9221129 -23.69373254 166.52928028 -23.61328125 163.66015625 C-23.58775681 162.82286484 -23.56223236 161.98557343 -23.53593445 161.12290955 C-23.48383483 159.34837169 -23.43441907 157.57375336 -23.38745117 155.79907227 C-23.31290217 153.07718368 -23.22226974 150.3561334 -23.13085938 147.63476562 C-23.08234324 145.91409013 -23.03478526 144.1933873 -22.98828125 142.47265625 C-22.95922195 141.65491226 -22.93016266 140.83716827 -22.90022278 139.99464417 C-22.85552543 137.99665258 -22.91842966 135.99682611 -23 134 C-24.98538931 131.55086978 -24.98538931 131.55086978 -28.875 131.9375 C-29.58527344 131.958125 -30.29554687 131.97875 -31.02734375 132 C-33.15285457 132 -34.96097073 131.5709282 -37 131 Z M43 162 C41.71573103 163.05950052 41.71573103 163.05950052 41.88647461 165.50024414 C41.89171143 166.58426514 41.89694824 167.66828613 41.90234375 168.78515625 C41.90556641 169.95498047 41.90878906 171.12480469 41.91210938 172.33007812 C41.92048828 173.56177734 41.92886719 174.79347656 41.9375 176.0625 C41.94201172 177.29806641 41.94652344 178.53363281 41.95117188 179.80664062 C41.96300392 182.87114117 41.97948827 185.93554721 42 189 C43.964604 190.26871235 43.964604 190.26871235 46.0625 189.375 C48.17780517 188.17381302 48.17780517 188.17381302 48.60546875 185.953125 C49.12263472 182.08206091 49.22336663 178.27678903 49.25 174.375 C49.270625 173.611875 49.29125 172.84875 49.3125 172.0625 C49.38851232 167.81240183 49.38851232 167.81240183 47.671875 164.0390625 C45.86360212 162.82554178 45.86360212 162.82554178 43 162 Z " fill="#0D63C0" transform="translate(115,0)"/>
<path d="M0 0 C1.24136719 0.00580078 1.24136719 0.00580078 2.5078125 0.01171875 C3.31992188 0.00785156 4.13203125 0.00398438 4.96875 0 C9.02860824 0.00661215 12.79729064 0.12243876 16.7578125 1.13671875 C16.87898438 1.72839844 17.00015625 2.32007812 17.125 2.9296875 C17.29257813 3.71988281 17.46015625 4.51007813 17.6328125 5.32421875 C17.87644531 6.49017578 17.87644531 6.49017578 18.125 7.6796875 C18.67999809 10.14429197 18.67999809 10.14429197 19.78019714 12.33244324 C20.99941142 15.82974177 21.01931354 18.75797812 21.0324707 22.4621582 C21.03758163 23.18155579 21.04269257 23.90095337 21.04795837 24.64215088 C21.06181516 27.01151947 21.06090021 29.38059579 21.05859375 31.75 C21.06248361 33.4052084 21.06681887 35.06041582 21.07157898 36.71562195 C21.07903335 40.18308753 21.07875617 43.65045128 21.07348633 47.11791992 C21.067701 51.54623336 21.08460365 55.97412727 21.107831 60.40237141 C21.12261588 63.82118641 21.12343345 67.23990159 21.12032127 70.6587429 C21.12083237 72.29050717 21.12603017 73.92227733 21.13613319 75.55401039 C21.21936761 90.88062772 21.21936761 90.88062772 17.7578125 98.13671875 C17.27034279 100.47581044 17.0057632 102.75639205 16.7578125 105.13671875 C16.08234375 105.19730469 15.406875 105.25789063 14.7109375 105.3203125 C13.81890625 105.40410156 12.926875 105.48789063 12.0078125 105.57421875 C11.12609375 105.65542969 10.244375 105.73664063 9.3359375 105.8203125 C7.06430798 106.0991034 4.95929427 106.52462452 2.7578125 107.13671875 C2.4278125 109.44671875 2.0978125 111.75671875 1.7578125 114.13671875 C-2.8621875 114.13671875 -7.4821875 114.13671875 -12.2421875 114.13671875 C-12.3909937 108.97734087 -12.49961543 103.81922316 -12.57177734 98.65820312 C-12.60187026 96.90440095 -12.6427561 95.1507483 -12.69482422 93.39746094 C-12.76797807 90.87006707 -12.80171616 88.34466902 -12.828125 85.81640625 C-12.85909271 85.03804413 -12.89006042 84.25968201 -12.92196655 83.45773315 C-12.92395716 80.20591769 -12.90669793 78.0119666 -10.89727783 75.36529541 C-9.26025391 73.77392578 -9.26025391 73.77392578 -7.61953735 72.42483521 C-5.64522899 70.57843497 -5.39706726 68.76967462 -5.2421875 66.13671875 C-2.2721875 65.64171875 -2.2721875 65.64171875 0.7578125 65.13671875 C0.7578125 57.21671875 0.7578125 49.29671875 0.7578125 41.13671875 C-1.2221875 40.80671875 -3.2021875 40.47671875 -5.2421875 40.13671875 C-6.4140625 38.5 -6.4140625 38.5 -6.9921875 36.44921875 C-7.19328125 35.78535156 -7.394375 35.12148437 -7.6015625 34.4375 C-7.81296875 33.67824219 -8.024375 32.91898438 -8.2421875 32.13671875 C-8.59152344 31.2653125 -8.94085938 30.39390625 -9.30078125 29.49609375 C-10.56693015 24.97788606 -10.57176575 20.74341263 -10.5546875 16.07421875 C-10.57080078 15.18927734 -10.58691406 14.30433594 -10.60351562 13.39257812 C-10.60720685 8.47217278 -10.42679904 5.14368568 -7.2421875 1.13671875 C-5.32991984 -0.77554891 -2.54064894 0.004165 0 0 Z " fill="#8B979D" transform="translate(162.2421875,122.86328125)"/>
<path d="M0 0 C8.58 0 17.16 0 26 0 C26 5.94 26 11.88 26 18 C29.58779175 18.89694794 32.34618837 19.08304117 36 19 C36.36600533 26.3201066 36.36600533 26.3201066 34.79296875 29.2421875 C32.47808602 31.51168037 31.31468123 31.40408524 28.125 31.375 C24.46129506 31.53166809 24.46129506 31.53166809 21.375 33.28125 C20.18155734 34.8028894 19.08741102 36.40086614 18 38 C17.29875 38.495 16.5975 38.99 15.875 39.5 C13.29142132 41.56686295 12.32645441 44.01547758 11 47 C8.6875 46.8125 8.6875 46.8125 6 46 C4.94228261 44.36935236 3.94726954 42.69719127 3 41 C1.33729713 39.66172696 -0.32916181 38.32810215 -2 37 C-2.24621094 36.31292969 -2.49242188 35.62585937 -2.74609375 34.91796875 C-3.15988281 34.28503906 -3.57367188 33.65210938 -4 33 C-7.04526072 32.3679936 -7.04526072 32.3679936 -10.5 32.375 C-16.80637813 32.19362187 -16.80637813 32.19362187 -19 30 C-19.27629475 26.31975395 -19.0859315 22.69505443 -19 19 C-13.06 19 -7.12 19 -1 19 C0.00942188 14.96231248 0.11263915 11.36229751 0.0625 7.25 C0.0315625 3.66125 0.0315625 3.66125 0 0 Z " fill="#98A3A6" transform="translate(115,0)"/>
<path d="M0 0 C10.16236162 -0.19926199 10.16236162 -0.19926199 14 1 C15.82111836 4.64223672 15.35446207 9.01141343 15.5234375 13.03125 C15.68070313 14.0109375 15.83796875 14.990625 16 16 C16.99 16.66 17.98 17.32 19 18 C21.02458142 23.12795977 20.2638148 29.37282805 20.29516602 34.78955078 C20.3066931 36.17637326 20.32715702 37.56315112 20.35668945 38.94970703 C20.39953194 40.96354319 20.41295791 42.9779365 20.42578125 44.9921875 C20.44036377 46.19214355 20.45494629 47.39209961 20.4699707 48.62841797 C19.90410144 52.68797874 18.58550378 54.85362442 16 58 C13.37890625 58.62109375 13.37890625 58.62109375 10.5625 58.4375 C9.63566406 58.39496094 8.70882812 58.35242188 7.75390625 58.30859375 C5.12279277 58.01375976 2.59103262 57.53505435 0 57 C-2.99119283 46.95100025 -3.46949638 37.52340366 -3.39111328 27.11352539 C-3.37487022 24.54195377 -3.39112778 21.97191805 -3.41015625 19.40039062 C-3.40817622 17.7473924 -3.40433752 16.09439513 -3.3984375 14.44140625 C-3.40451019 13.68195206 -3.41058289 12.92249786 -3.4168396 12.14002991 C-3.35387423 7.35677437 -2.44815935 4.10336143 0 0 Z " fill="#959E9E" transform="translate(77,171)"/>
<path d="M0 0 C3.625 0.875 3.625 0.875 6 3 C6.52768827 5.55122016 6.68743431 7.92298278 6.69921875 10.52734375 C6.77620702 13.06466776 6.77620702 13.06466776 8.49389648 14.74462891 C10.52447911 17.78540088 10.3878493 19.92205222 10.3984375 23.55859375 C10.40423828 25.46801758 10.40423828 25.46801758 10.41015625 27.41601562 C10.40387207 28.07641846 10.39758789 28.73682129 10.39111328 29.41723633 C10.37507625 31.42793967 10.39096277 33.43662516 10.41015625 35.44726562 C10.40628906 36.72150391 10.40242188 37.99574219 10.3984375 39.30859375 C10.39505371 40.47189209 10.39166992 41.63519043 10.38818359 42.83374023 C9.95812544 46.34155416 9.11441097 48.1935153 7 51 C1.90184354 54.39877097 -3.25339783 53.14932043 -9 52 C-10.485 46.555 -10.485 46.555 -12 41 C-12.66 41 -13.32 41 -14 41 C-14.0741205 35.64317867 -14.12858776 30.28665538 -14.16479492 24.92944336 C-14.1798876 23.10679933 -14.20036395 21.28419164 -14.22631836 19.46166992 C-14.26268103 16.842845 -14.27972124 14.22449993 -14.29296875 11.60546875 C-14.30845261 10.78974899 -14.32393646 9.97402924 -14.33988953 9.1335907 C-14.34158915 3.42878489 -14.34158915 3.42878489 -12.63423157 1.28559875 C-9.15966312 -1.44773534 -4.17650377 -0.40513874 0 0 Z " fill="#9DA6A4" transform="translate(86,80)"/>
<path d="M0 0 C1.91619141 -0.00773438 1.91619141 -0.00773438 3.87109375 -0.015625 C7.5625 0.25 7.5625 0.25 13.5625 2.25 C13.5625 8.52 13.5625 14.79 13.5625 21.25 C4.9825 21.25 -3.5975 21.25 -12.4375 21.25 C-12.4375 14.98 -12.4375 8.71 -12.4375 2.25 C-7.62442219 0.32476887 -5.05854891 -0.02037683 0 0 Z " fill="#8B959A" transform="translate(127.4375,234.75)"/>
<path d="M0 0 C3.37538287 0.91226564 4.72486845 1.56867825 6.63378906 4.5612793 C8.22752419 8.57267303 8.4932815 12.14176723 8.546875 16.39453125 C8.57824303 17.6138887 8.57824303 17.6138887 8.61024475 18.85787964 C8.67291624 21.50936567 8.71299397 24.16053985 8.75 26.8125 C8.78342675 28.64884477 8.81687421 30.48518917 8.8503418 32.3215332 C9.02906386 43.3995741 9.08722904 54.48181399 8.85583496 65.55941772 C8.82716755 66.96720952 8.80420866 68.37513027 8.78723145 69.78311157 C8.59999343 83.17645548 8.59999343 83.17645548 4 88 C1.75 89.375 1.75 89.375 0 90 C0.32466248 88.83843887 0.64932495 87.67687775 0.98382568 86.4801178 C2.00463484 82.37826186 2.25357396 78.55751675 2.25878906 74.31811523 C2.2622937 73.59667328 2.26579834 72.87523132 2.26940918 72.13192749 C2.2781305 69.7740484 2.27241232 67.41647529 2.265625 65.05859375 C2.26697427 63.40527794 2.26891698 61.75196253 2.27142334 60.09864807 C2.27436147 56.64490964 2.27011877 53.19127512 2.26074219 49.73754883 C2.24933945 45.32387505 2.25592062 40.91044435 2.26788712 36.49677944 C2.27513357 33.08659553 2.27280517 29.67646872 2.26763153 26.26628304 C2.2663032 24.63928256 2.26791396 23.01227681 2.27259064 21.38528252 C2.27770288 19.10754644 2.26988071 16.83019767 2.25878906 14.55249023 C2.25640228 12.6134507 2.25640228 12.6134507 2.25396729 10.63523865 C1.98287758 6.75491292 1.19645514 3.68238965 0 0 Z " fill="#2065AF" transform="translate(180,131)"/>
<path d="M0 0 C1.32 0 2.64 0 4 0 C4.06058594 0.78246094 4.12117188 1.56492187 4.18359375 2.37109375 C4.26738281 3.38300781 4.35117188 4.39492188 4.4375 5.4375 C4.51871094 6.44683594 4.59992188 7.45617187 4.68359375 8.49609375 C4.73211468 10.93640779 4.73211468 10.93640779 6 12 C8.10360371 12.0792152 10.20797941 12.1383399 12.3125 12.1875 C18.66632562 12.62354686 18.66632562 12.62354686 21.4375 15.75 C21.953125 16.8225 22.46875 17.895 23 19 C24.5007476 20.43129718 24.5007476 20.43129718 26.1875 21.6875 C29 24 29 24 30 27 C32.01508358 27.73323796 32.01508358 27.73323796 34 28 C34.3403125 26.63875 34.3403125 26.63875 34.6875 25.25 C36.22435357 21.44445783 37.75107966 20.41780118 41 18 C41.721875 16.948125 42.44375 15.89625 43.1875 14.8125 C46.75140605 11.24859395 48.91734939 11.32271057 53.79296875 11.30078125 C54.52128906 11.20152344 55.24960938 11.10226563 56 11 C57.93395001 8.09907498 58.30131941 7.10325263 58.625 3.8125 C58.810625 1.9253125 58.810625 1.9253125 59 0 C59.99 0 60.98 0 62 0 C62.10794277 2.26979665 62.18556176 4.54105196 62.25 6.8125 C62.29640625 8.07707031 62.3428125 9.34164063 62.390625 10.64453125 C62 14 62 14 60.171875 15.88671875 C57.49185439 17.26047032 55.71007029 18.11514653 52.6875 17.625 C48.93042695 18.14924275 48.08264668 20.0218137 45.80859375 22.91015625 C42.42316787 26.82204144 38.36443881 30.22721297 34 33 C32.68 33 31.36 33 30 33 C30 32.34 30 31.68 30 31 C29.01 31 28.02 31 27 31 C26.443125 29.948125 25.88625 28.89625 25.3125 27.8125 C23.01604211 23.81195675 20.45098908 20.02783413 16.0625 18.1875 C13.86622323 17.93406292 13.86622323 17.93406292 11.125 18.1875 C7.04067829 17.9424407 5.13632137 16.56608112 2 14 C-0.01604139 10.86092884 -0.22212913 8.44090706 -0.125 4.75 C-0.09792969 3.41195313 -0.09792969 3.41195313 -0.0703125 2.046875 C-0.04710938 1.37140625 -0.02390625 0.6959375 0 0 Z " fill="#4983BB" transform="translate(92,19)"/>
<path d="M0 0 C1.32 0 2.64 0 4 0 C3.67475342 0.81082031 3.34950684 1.62164062 3.0144043 2.45703125 C1.8096368 6.66487383 1.72955909 10.34059049 1.76953125 14.6875 C1.76998947 15.50822998 1.77044769 16.32895996 1.7709198 17.17456055 C1.77392857 18.9025213 1.78177346 20.63047967 1.79418945 22.35839844 C1.81244202 24.99163511 1.81469886 27.62451913 1.81445312 30.2578125 C1.81936948 31.94271135 1.82519832 33.62760783 1.83203125 35.3125 C1.83370049 36.48462036 1.83370049 36.48462036 1.83540344 37.68041992 C1.8716725 41.89278342 2.17330051 45.85042209 3 50 C-3.60660619 45.97858753 -3.60660619 45.97858753 -5 42 C-5.20362023 39.34026727 -5.30410482 36.78821866 -5.30078125 34.12890625 C-5.30506638 33.36956284 -5.3093515 32.61021942 -5.31376648 31.8278656 C-5.31949833 30.22501623 -5.32001848 28.62214084 -5.31567383 27.01928711 C-5.31251518 24.57425308 -5.33598106 22.13043131 -5.36132812 19.68554688 C-5.36360147 18.12500152 -5.36430445 16.56445293 -5.36328125 15.00390625 C-5.372491 14.27667862 -5.38170074 13.54945099 -5.39118958 12.80018616 C-5.33988881 7.13839823 -3.9610769 3.9610769 0 0 Z " fill="#1E6AB9" transform="translate(73,171)"/>
<path d="M0 0 C0 0.66 0 1.32 0 2 C0.66 2 1.32 2 2 2 C2.33 3.32 2.66 4.64 3 6 C2.236875 5.67 1.47375 5.34 0.6875 5 C-4.1843375 3.67882373 -8.97602044 3.44178005 -14 4 C-17.01484776 7.01484776 -16.35708856 10.45898711 -16.4140625 14.5078125 C-16.43342865 15.34843231 -16.4527948 16.18905212 -16.4727478 17.05514526 C-16.53261658 19.74499303 -16.57895771 22.43488343 -16.625 25.125 C-16.6631731 26.94663344 -16.70222444 28.7682487 -16.7421875 30.58984375 C-16.83832398 35.05974852 -16.92232769 39.52973779 -17 44 C-16.34 44 -15.68 44 -15 44 C-15 44.66 -15 45.32 -15 46 C-17.23870341 45.10451864 -18.69399347 44.43715218 -20.09375 42.4375 C-21.39582037 38.93537969 -21.47736011 35.44490304 -21.625 31.75 C-21.65932129 30.95948242 -21.69364258 30.16896484 -21.72900391 29.35449219 C-21.79540568 27.71440119 -21.85638978 26.0740824 -21.91210938 24.43359375 C-21.99601937 22.11021924 -22.11400479 19.79046686 -22.234375 17.46875 C-22.28375322 16.06258567 -22.33074006 14.65633473 -22.375 13.25 C-22.42398438 11.99703125 -22.47296875 10.7440625 -22.5234375 9.453125 C-21.82048007 4.81570435 -20.29900946 3.28441207 -17 0 C-11.8419634 -2.69624641 -5.25005302 -2.62502651 0 0 Z " fill="#4080C1" transform="translate(89,77)"/>
<path d="M0 0 C0.99 0 1.98 0 3 0 C3.33 2.97 3.66 5.94 4 9 C4.80824219 8.979375 5.61648437 8.95875 6.44921875 8.9375 C15.1085642 9.1046285 15.1085642 9.1046285 17.76953125 11.77734375 C19 13.9375 19 13.9375 19.9375 16.08984375 C21.26188957 18.47082353 22.58958714 18.85848334 25 20 C25.75 22.625 25.75 22.625 26 25 C28.75717702 23.62141149 29.46321746 21.62533685 31 19 C31.66 18.34 32.32 17.68 33 17 C33.99 17 34.98 17 36 17 C36.103125 16.401875 36.20625 15.80375 36.3125 15.1875 C37.13931249 12.55673298 37.80825964 11.67166638 40 10 C42.91796875 9.48828125 42.91796875 9.48828125 46.1875 9.3125 C47.81751953 9.21388672 47.81751953 9.21388672 49.48046875 9.11328125 C50.31191406 9.07589844 51.14335937 9.03851563 52 9 C52.33 6.03 52.66 3.06 53 0 C53.66 0 54.32 0 55 0 C55.36600533 7.3201066 55.36600533 7.3201066 53.79296875 10.2421875 C51.47808602 12.51168037 50.31468123 12.40408524 47.125 12.375 C43.46129506 12.53166809 43.46129506 12.53166809 40.375 14.28125 C39.18155734 15.8028894 38.08741102 17.40086614 37 19 C35.948125 19.7425 35.948125 19.7425 34.875 20.5 C32.29142132 22.56686295 31.32645441 25.01547758 30 28 C27.6875 27.8125 27.6875 27.8125 25 27 C23.94228261 25.36935236 22.94726954 23.69719127 22 22 C20.33729713 20.66172696 18.67083819 19.32810215 17 18 C16.75378906 17.31292969 16.50757812 16.62585938 16.25390625 15.91796875 C15.84011719 15.28503906 15.42632812 14.65210938 15 14 C11.95473928 13.3679936 11.95473928 13.3679936 8.5 13.375 C2.19362187 13.19362187 2.19362187 13.19362187 0 11 C-0.1953125 8.3984375 -0.1953125 8.3984375 -0.125 5.375 C-0.10695313 4.37210938 -0.08890625 3.36921875 -0.0703125 2.3359375 C-0.04710938 1.56507812 -0.02390625 0.79421875 0 0 Z " fill="#7396B3" transform="translate(96,19)"/>
<path d="M0 0 C0.33 0 0.66 0 1 0 C1.03738281 0.91523438 1.07476562 1.83046875 1.11328125 2.7734375 C1.17902344 3.96195313 1.24476562 5.15046875 1.3125 6.375 C1.37050781 7.55835938 1.42851563 8.74171875 1.48828125 9.9609375 C1.65714844 10.96382812 1.82601562 11.96671875 2 13 C2.99 13.66 3.98 14.32 5 15 C7.02458142 20.12795977 6.2638148 26.37282805 6.29516602 31.78955078 C6.3066931 33.17637326 6.32715702 34.56315112 6.35668945 35.94970703 C6.39953194 37.96354319 6.41295791 39.9779365 6.42578125 41.9921875 C6.44036377 43.19214355 6.45494629 44.39209961 6.4699707 45.62841797 C5.90616979 49.67314035 4.56996631 51.86221914 2 55 C1.34 55 0.68 55 0 55 C0 36.85 0 18.7 0 0 Z " fill="#738EA4" transform="translate(91,174)"/>
<path d="M0 0 C2.7486099 2.7486099 2.95929683 4.74221327 3.5625 8.5625 C3 12 3 12 0.5625 14.5 C-4.00949932 16.42505235 -7.23521202 15.97413443 -12 15 C-13.56855707 5.11127064 -13.56855707 5.11127064 -11.625 1.3125 C-7.75013598 -0.62493201 -4.23822694 -0.91507173 0 0 Z " fill="#286FB8" transform="translate(184,77)"/>
<path d="M0 0 C1.69439089 3.38878178 0.99513621 7.22807535 0.87890625 10.9453125 C0.85529526 11.8303244 0.83168427 12.7153363 0.80735779 13.62716675 C0.73065076 16.45993817 0.64665678 19.29244104 0.5625 22.125 C0.50928636 24.04295551 0.45654592 25.96092422 0.40429688 27.87890625 C0.27502609 32.58610827 0.1392187 37.29308212 0 42 C-1.65 42 -3.3 42 -5 42 C-5.12385084 36.82227254 -5.21445571 31.64541212 -5.2746582 26.46655273 C-5.29976061 24.70598324 -5.33385028 22.94551753 -5.37719727 21.18530273 C-5.43804115 18.65061821 -5.46625113 16.11731425 -5.48828125 13.58203125 C-5.51408768 12.79850784 -5.5398941 12.01498444 -5.56648254 11.2077179 C-5.56870495 6.85070407 -5.38219346 5.45859528 -2.46948242 1.96362305 C-1.65455322 1.31562744 -0.83962402 0.66763184 0 0 Z " fill="#6082A2" transform="translate(155,195)"/>
<path d="M0 0 C1.96864319 1.03616333 1.96864319 1.03616333 4 3 C4.39820416 5.6125306 4.53726106 7.80786447 4.50170898 10.42138672 C4.50711197 11.17457184 4.51251495 11.92775696 4.51808167 12.70376587 C4.53059898 15.19613834 4.51405591 17.68736209 4.49609375 20.1796875 C4.4962487 21.91220154 4.49773705 23.64471594 4.50050354 25.37722778 C4.50188898 29.01059266 4.48930804 32.64356351 4.46655273 36.27685547 C4.43820984 40.9297626 4.44089191 45.58201277 4.45364285 50.23496819 C4.46060628 53.81411324 4.45280247 57.39310707 4.44038582 60.97223282 C4.43587478 62.68740381 4.43553149 64.40259107 4.43945122 66.11776352 C4.4423689 68.51878719 4.42582923 70.918914 4.40405273 73.31982422 C4.40855438 74.02649231 4.41305603 74.7331604 4.41769409 75.46124268 C4.35240103 79.80444312 3.56359754 82.48859098 1 86 C0 84 0 84 0.42941284 82.32872009 C1.21942511 79.10446695 1.12737643 76.05936959 1.12939453 72.74047852 C1.13114685 72.01640808 1.13289917 71.29233765 1.13470459 70.54632568 C1.13909914 68.15716136 1.13619324 65.76807131 1.1328125 63.37890625 C1.1334863 61.71508266 1.13445697 60.05125917 1.13571167 58.38743591 C1.13718546 54.90142886 1.13504459 51.41544744 1.13037109 47.92944336 C1.12467844 43.46619655 1.1279519 39.00300995 1.13394356 34.53976536 C1.13756155 31.10393319 1.13640481 27.66811524 1.13381577 24.23228264 C1.1331497 22.58688284 1.13396373 20.94148174 1.13629532 19.29608345 C1.13884165 16.99365969 1.13495315 14.6913326 1.12939453 12.38891602 C1.12859894 11.07971695 1.12780334 9.77051788 1.12698364 8.42164612 C1.01757272 5.47350676 0.69007698 2.85926647 0 0 Z " fill="#4778A8" transform="translate(181,133)"/>
<path d="M0 0 C0.85722656 0.07863281 1.71445313 0.15726563 2.59765625 0.23828125 C4.9375 0.6875 4.9375 0.6875 7.9375 2.6875 C7.9375 3.3475 7.9375 4.0075 7.9375 4.6875 C8.9275 5.0175 9.9175 5.3475 10.9375 5.6875 C10.6075 7.0075 10.2775 8.3275 9.9375 9.6875 C9.2671875 9.52507812 8.596875 9.36265625 7.90625 9.1953125 C4.37461321 8.59121673 1.01994166 8.55533512 -2.5625 8.5625 C-3.8515625 8.55992187 -5.140625 8.55734375 -6.46875 8.5546875 C-9.48459033 8.66614247 -12.14042088 8.97945775 -15.0625 9.6875 C-14.875 6.875 -14.875 6.875 -14.0625 3.6875 C-9.58967458 0.18177197 -5.54584658 -0.56044 0 0 Z " fill="#1761B0" transform="translate(130.0625,227.3125)"/>
<path d="M0 0 C0.66 0 1.32 0 2 0 C2.10794277 2.26979665 2.18556176 4.54105196 2.25 6.8125 C2.29640625 8.07707031 2.3428125 9.34164063 2.390625 10.64453125 C2 14 2 14 0.171875 15.88671875 C-2.50814561 17.26047032 -4.28992971 18.11514653 -7.3125 17.625 C-11.06957305 18.14924275 -11.91735332 20.0218137 -14.19140625 22.91015625 C-17.57683213 26.82204144 -21.63556119 30.22721297 -26 33 C-27.32 33 -28.64 33 -30 33 C-30 32.34 -30 31.68 -30 31 C-30.99 31 -31.98 31 -33 31 C-36.875 24.25 -36.875 24.25 -38 22 C-35.07992185 23.14717356 -33.96833498 24.042901 -32.0625 26.625 C-30.2221489 29.18726523 -30.2221489 29.18726523 -27.5 29.6875 C-23.74903241 28.65598391 -22.96899659 26.2611506 -21 23 C-19.37446717 21.29319053 -17.70884005 19.62339805 -16 18 C-15.13375 16.88625 -15.13375 16.88625 -14.25 15.75 C-11.2496596 13.41640191 -8.74845994 13.39235232 -5.0234375 13.17578125 C-2.93149268 13.11913214 -2.93149268 13.11913214 -1 12 C-0.53101037 9.1840151 -0.53101037 9.1840151 -0.375 5.9375 C-0.30023438 4.83277344 -0.22546875 3.72804688 -0.1484375 2.58984375 C-0.09945312 1.73519531 -0.05046875 0.88054688 0 0 Z " fill="#2E77C3" transform="translate(152,19)"/>
<path d="M0 0 C0.66 1.32 1.32 2.64 2 4 C2.52803223 4.607229 3.05606445 5.21445801 3.60009766 5.84008789 C5.53015456 8.81797652 5.38816319 11.02985739 5.3984375 14.55859375 C5.40230469 15.83154297 5.40617187 17.10449219 5.41015625 18.41601562 C5.40387207 19.07641846 5.39758789 19.73682129 5.39111328 20.41723633 C5.37507625 22.42793967 5.39096277 24.43662516 5.41015625 26.44726562 C5.40628906 27.72150391 5.40242188 28.99574219 5.3984375 30.30859375 C5.39505371 31.47189209 5.39166992 32.63519043 5.38818359 33.83374023 C4.96146755 37.31429395 4.08414169 39.20704662 2 42 C1.01 42.495 1.01 42.495 0 43 C0 28.81 0 14.62 0 0 Z " fill="#859BAA" transform="translate(91,89)"/>
<path d="M0 0 C2.375 0.6875 2.375 0.6875 5 2 C8.05275978 7.69488401 7.33503066 14.12259926 7.31567383 20.40209961 C7.31250427 22.55959156 7.33603452 24.71572319 7.36132812 26.87304688 C7.3636005 28.24999828 7.3643049 29.62695335 7.36328125 31.00390625 C7.36775269 32.87284546 7.36775269 32.87284546 7.37231445 34.77954102 C6.97670089 38.20153345 6.46743791 39.63288528 4 42 C1.3125 42.25 1.3125 42.25 -1 42 C-0.34902344 41.14792969 0.30195312 40.29585937 0.97265625 39.41796875 C4.31574844 33.55390462 3.53762212 26.85919506 3.4375 20.3125 C3.44458984 18.99443359 3.45167969 17.67636719 3.45898438 16.31835938 C3.66240846 8.52611238 3.66240846 8.52611238 0 2 C0 1.34 0 0.68 0 0 Z " fill="#3779BE" transform="translate(92,91)"/>
<path d="M0 0 C3.6875 1.5 3.6875 1.5 6 3 C5.67 3.66 5.34 4.32 5 5 C4.05125 4.67 3.1025 4.34 2.125 4 C-1.07320661 3.06640767 -3.93052317 2.89364775 -7.2578125 2.9375 C-8.14871582 2.94652344 -9.03961914 2.95554687 -9.95751953 2.96484375 C-10.96854736 2.98224609 -10.96854736 2.98224609 -12 3 C-11.90633638 7.91162893 -11.80021404 12.82277241 -11.68261719 17.73388672 C-11.64437143 19.40405941 -11.60951085 21.07431323 -11.578125 22.74462891 C-11.53237839 25.14775557 -11.47440075 27.55032584 -11.4140625 29.953125 C-11.40251129 30.69806213 -11.39096008 31.44299927 -11.37905884 32.21051025 C-11.27146857 36.00316269 -10.92775823 38.72348204 -9 42 C-8.875 44.75 -8.875 44.75 -9 47 C-12 43.25 -12 43.25 -12 41 C-12.66 41 -13.32 41 -14 41 C-14.0741205 35.64317867 -14.12858776 30.28665538 -14.16479492 24.92944336 C-14.1798876 23.10679933 -14.20036395 21.28419164 -14.22631836 19.46166992 C-14.26268103 16.842845 -14.27972124 14.22449993 -14.29296875 11.60546875 C-14.30845261 10.78974899 -14.32393646 9.97402924 -14.33988953 9.1335907 C-14.34158915 3.42878489 -14.34158915 3.42878489 -12.63423157 1.28559875 C-9.18428778 -1.4283639 -4.14920602 -0.46102289 0 0 Z " fill="#6690B5" transform="translate(86,80)"/>
<path d="M0 0 C-0.33 0.66 -0.66 1.32 -1 2 C-2.58941406 1.96519531 -2.58941406 1.96519531 -4.2109375 1.9296875 C-5.5989513 1.91093056 -6.9869727 1.89273028 -8.375 1.875 C-9.07367188 1.85824219 -9.77234375 1.84148437 -10.4921875 1.82421875 C-12.32897486 1.80655733 -14.16601963 1.89696739 -16 2 C-19.01484776 5.01484776 -18.35708856 8.45898711 -18.4140625 12.5078125 C-18.43342865 13.34843231 -18.4527948 14.18905212 -18.4727478 15.05514526 C-18.53261658 17.74499303 -18.57895771 20.43488343 -18.625 23.125 C-18.6631731 24.94663344 -18.70222444 26.7682487 -18.7421875 28.58984375 C-18.83832398 33.05974852 -18.92232769 37.52973779 -19 42 C-21.93736341 39.06263659 -21.47048335 35.82702904 -21.625 31.875 C-21.67648193 30.67568848 -21.67648193 30.67568848 -21.72900391 29.45214844 C-21.79554539 27.7902504 -21.85650541 26.12812024 -21.91210938 24.46582031 C-21.99540122 22.12902135 -22.11325854 19.79602171 -22.234375 17.4609375 C-22.28374007 16.05737703 -22.33072774 14.65373034 -22.375 13.25 C-22.42398438 11.99703125 -22.47296875 10.7440625 -22.5234375 9.453125 C-21.82048007 4.81570435 -20.29900946 3.28441207 -17 0 C-11.8419634 -2.69624641 -5.25005302 -2.62502651 0 0 Z " fill="#2375CA" transform="translate(89,77)"/>
<path d="M0 0 C0 3 0 3 -1 6 C-1.08567246 7.36592183 -1.11773647 8.73564858 -1.11352539 10.10424805 C-1.11344986 10.92487228 -1.11337433 11.74549652 -1.11329651 12.59098816 C-1.10813522 13.47232925 -1.10297394 14.35367035 -1.09765625 15.26171875 C-1.0962413 16.16751175 -1.09482635 17.07330475 -1.09336853 18.00654602 C-1.08777001 20.90023091 -1.07521781 23.79383849 -1.0625 26.6875 C-1.05748481 28.64908742 -1.05292193 30.61067606 -1.04882812 32.57226562 C-1.03780107 37.38154021 -1.02053747 42.190757 -1 47 C-4.62326389 43.53426932 -5.12555948 41.50197666 -5.24154663 36.4385376 C-5.28614491 33.22498646 -5.32707981 30.01164024 -5.35009766 26.79785156 C-5.36663059 25.1063051 -5.39388581 23.41482773 -5.43212891 21.72363281 C-5.48710365 19.27893001 -5.50880304 16.835864 -5.5234375 14.390625 C-5.54610687 13.64041077 -5.56877625 12.89019653 -5.59213257 12.11724854 C-5.56883884 6.28295243 -3.94956012 3.96284777 0 0 Z " fill="#5482AD" transform="translate(76,171)"/>
<path d="M0 0 C1.53297297 3.06594594 1.12131455 6.27111853 1.09765625 9.6328125 C1.0962413 10.38464813 1.09482635 11.13648376 1.09336853 11.91110229 C1.08776465 14.3157751 1.07521157 16.72035527 1.0625 19.125 C1.0574855 20.75390491 1.0529225 22.38281127 1.04882812 24.01171875 C1.03779397 28.00784827 1.02052679 32.00390842 1 36 C-4.39233891 29.47853065 -4.20247152 24.19866345 -4.25 16 C-4.270625 15.11054688 -4.29125 14.22109375 -4.3125 13.3046875 C-4.34201675 8.36063153 -4.21367399 5.02520783 -1 1 C-0.67 0.67 -0.34 0.34 0 0 Z " fill="#6B8BA8" transform="translate(156,123)"/>
<path d="M0 0 C0.99 0.33 1.98 0.66 3 1 C2.51144531 1.62132813 2.02289063 2.24265625 1.51953125 2.8828125 C-0.61210378 7.25567819 -0.40029816 11.07770873 -0.3125 15.875 C-0.31733398 17.18404297 -0.31733398 17.18404297 -0.32226562 18.51953125 C-0.27926113 23.71916553 0.31682983 28.07790078 2 33 C0.35 32.34 -1.3 31.68 -3 31 C-3 29.68 -3 28.36 -3 27 C-3.66 27 -4.32 27 -5 27 C-5.08149592 23.97861433 -5.14073421 20.95946095 -5.1875 17.9375 C-5.21263672 17.08994141 -5.23777344 16.24238281 -5.26367188 15.36914062 C-5.32827015 9.7921559 -4.69742038 5.91805702 -2 1 C-1.34 0.67 -0.68 0.34 0 0 Z " fill="#2B70B7" transform="translate(153,123)"/>
<path d="M0 0 C1.32 0 2.64 0 4 0 C4.06058594 0.78246094 4.12117188 1.56492187 4.18359375 2.37109375 C4.26738281 3.38300781 4.35117188 4.39492188 4.4375 5.4375 C4.51871094 6.44683594 4.59992188 7.45617187 4.68359375 8.49609375 C4.73211468 10.93640779 4.73211468 10.93640779 6 12 C7.7499245 12.02642503 9.49995263 12.04612255 11.25 12.0625 C16.44175868 12.44057345 16.44175868 12.44057345 18.83984375 14.84375 C20.06221414 16.85623226 21.10302196 18.82445657 22 21 C21.01 21 20.02 21 19 21 C18.34 20.01 17.68 19.02 17 18 C14.98864629 17.78734922 14.98864629 17.78734922 12.75 18.0625 C8.03988128 18.22177938 5.61332872 17.17267888 2 14 C-0.00236702 10.85051424 -0.22224664 8.44537216 -0.125 4.75 C-0.09792969 3.41195313 -0.09792969 3.41195313 -0.0703125 2.046875 C-0.04710938 1.37140625 -0.02390625 0.6959375 0 0 Z " fill="#3C80C5" transform="translate(92,19)"/>
<path d="M0 0 C0.33 0 0.66 0 1 0 C1.65221114 16.00692657 2.1661172 31.97891896 2 48 C-1.36870667 42.94694 -1.14783077 38.3462545 -1.1328125 32.40234375 C-1.13376923 31.57166885 -1.13472595 30.74099396 -1.13571167 29.88514709 C-1.13639099 28.13265914 -1.13455401 26.38016864 -1.13037109 24.62768555 C-1.12501256 21.94379033 -1.13032795 19.26006194 -1.13671875 16.57617188 C-1.13605806 14.87239546 -1.13477708 13.16861916 -1.1328125 11.46484375 C-1.13483673 10.66167221 -1.13686096 9.85850067 -1.13894653 9.0309906 C-1.12516869 5.76306681 -1.04073745 3.12221234 0 0 Z " fill="#7D93A4" transform="translate(75,174)"/>
<path d="M0 0 C1.17949219 0.10183594 2.35898438 0.20367187 3.57421875 0.30859375 C4.47785156 0.39238281 5.38148437 0.47617188 6.3125 0.5625 C6.3125 0.8925 6.3125 1.2225 6.3125 1.5625 C1.6925 1.5625 -2.9275 1.5625 -7.6875 1.5625 C-7.3575 14.1025 -7.0275 26.6425 -6.6875 39.5625 C-10.02357802 35.11439597 -10.0895175 32.7620224 -9.98046875 27.515625 C-9.97622391 26.74442322 -9.97197906 25.97322144 -9.96760559 25.1786499 C-9.95085383 22.72290685 -9.91320939 20.26799371 -9.875 17.8125 C-9.85994857 16.14454313 -9.84626097 14.47657335 -9.83398438 12.80859375 C-9.80096194 8.72624422 -9.74920484 4.64451268 -9.6875 0.5625 C-6.14075997 -0.61974668 -3.71227005 -0.33079634 0 0 Z " fill="#869DAC" transform="translate(83.6875,82.4375)"/>
<path d="M0 0 C3.3 0 6.6 0 10 0 C10.32152515 3.53677664 10.4131192 5.3962104 8.375 8.375 C5.3962104 10.4131192 3.53677664 10.32152515 0 10 C0 6.7 0 3.4 0 0 Z " fill="#FFFFFF" transform="translate(0,0)"/>
<path d="M0 0 C0.66 0 1.32 0 2 0 C2.36600533 7.3201066 2.36600533 7.3201066 0.79296875 10.2421875 C-1.52191398 12.51168037 -2.68531877 12.40408524 -5.875 12.375 C-10.30598774 12.63775994 -10.30598774 12.63775994 -13.6875 15.6875 C-14.04585937 16.21988281 -14.40421875 16.75226562 -14.7734375 17.30078125 C-16.99570447 20.3793995 -20.06958359 22.61850886 -23 25 C-23.66 24.67 -24.32 24.34 -25 24 C-23.47793991 21.37098712 -22.15634036 19.15634036 -20 17 C-19.01 17 -18.02 17 -17 17 C-16.896875 16.401875 -16.79375 15.80375 -16.6875 15.1875 C-15.86068751 12.55673298 -15.19174036 11.67166638 -13 10 C-10.08203125 9.48828125 -10.08203125 9.48828125 -6.8125 9.3125 C-5.18248047 9.21388672 -5.18248047 9.21388672 -3.51953125 9.11328125 C-2.68808594 9.07589844 -1.85664063 9.03851563 -1 9 C-0.67 6.03 -0.34 3.06 0 0 Z " fill="#7795AD" transform="translate(149,19)"/>
<path d="M0 0 C1.9375 0.75 1.9375 0.75 4 2 C6.15016103 6.98300355 5.2643663 13.46811369 5.29516602 18.78955078 C5.3066931 20.17637326 5.32715702 21.56315112 5.35668945 22.94970703 C5.39953194 24.96354319 5.41295791 26.9779365 5.42578125 28.9921875 C5.44036377 30.19214355 5.45494629 31.39209961 5.4699707 32.62841797 C4.91104373 36.63817458 3.44634204 38.82396222 1 42 C0.34 41.67 -0.32 41.34 -1 41 C-0.51144531 40.10023438 -0.02289063 39.20046875 0.48046875 38.2734375 C2.77712443 32.89610008 2.39727876 27.37639078 2.3125 21.625 C2.31733398 19.99691406 2.31733398 19.99691406 2.32226562 18.3359375 C2.27966226 11.92219497 1.6386845 6.20219233 0 0 Z " fill="#477AAC" transform="translate(92,187)"/>
<path d="M0 0 C0 3 0 3 -0.97412109 4.68457031 C-2.46892064 8.05836348 -2.35777976 11.41720225 -2.4140625 15.046875 C-2.43342865 15.81807678 -2.4527948 16.58927856 -2.4727478 17.3838501 C-2.53237077 19.83912205 -2.57885914 22.29444133 -2.625 24.75 C-2.66319575 26.41798882 -2.70224841 28.08595826 -2.7421875 29.75390625 C-2.83805791 33.83577943 -2.92215235 37.91774493 -3 42 C-3.66 42 -4.32 42 -5 42 C-5.12385084 36.82227254 -5.21445571 31.64541212 -5.2746582 26.46655273 C-5.29976061 24.70598324 -5.33385028 22.94551753 -5.37719727 21.18530273 C-5.43804115 18.65061821 -5.46625113 16.11731425 -5.48828125 13.58203125 C-5.51408768 12.79850784 -5.5398941 12.01498444 -5.56648254 11.2077179 C-5.56870495 6.85070407 -5.38219346 5.45859528 -2.46948242 1.96362305 C-1.65455322 1.31562744 -0.83962402 0.66763184 0 0 Z " fill="#366FAA" transform="translate(155,195)"/>
<path d="M0 0 C1.13308594 -0.03738281 2.26617187 -0.07476562 3.43359375 -0.11328125 C7.15121413 0.39261216 8.25563903 1.43884273 10.5625 4.3125 C5.58557628 5.93348279 0.35613111 5.33206117 -4.80859375 5.25 C-7.86765615 5.30268568 -10.48122732 5.58339999 -13.4375 6.3125 C-9.33569327 0.79627716 -6.76664526 0.14593219 0 0 Z " fill="#557DA5" transform="translate(128.4375,230.6875)"/>
<path d="M0 0 C1 1 1 1 1.25 4.4375 C1.1675 5.613125 1.085 6.78875 1 8 C-2 10 -2 10 -5.1875 9.625 C-6.5796875 9.315625 -6.5796875 9.315625 -8 9 C-8.33 6.69 -8.66 4.38 -9 2 C-5.55892734 -0.29404844 -4.03160191 -0.26293056 0 0 Z " fill="#8899A5" transform="translate(180,83)"/>
<path d="M0 0 C1.47509766 1.11206055 1.47509766 1.11206055 3 3 C3.38818359 5.81567383 3.38818359 5.81567383 3.3984375 9.20703125 C3.40230469 10.43357422 3.40617187 11.66011719 3.41015625 12.92382812 C3.39855469 14.20708984 3.38695313 15.49035156 3.375 16.8125 C3.38660156 18.08416016 3.39820312 19.35582031 3.41015625 20.66601562 C3.40628906 21.89642578 3.40242188 23.12683594 3.3984375 24.39453125 C3.39336182 26.07832886 3.39336182 26.07832886 3.38818359 27.79614258 C2.95112299 31.40340437 1.78917163 33.86199077 0 37 C-0.99 36.67 -1.98 36.34 -3 36 C-2.51104248 35.49243164 -2.02208496 34.98486328 -1.51831055 34.46191406 C0.57364581 31.06984333 0.3401858 28.57560701 0.29296875 24.609375 C0.28872391 23.90476135 0.28447906 23.20014771 0.28010559 22.47418213 C0.26336538 20.23239288 0.22572404 17.99151569 0.1875 15.75 C0.17244704 14.22657552 0.1587597 12.70313689 0.14648438 11.1796875 C0.11347791 7.45283059 0.06172854 3.72650437 0 0 Z " fill="#286BB2" transform="translate(96,191)"/>
<path d="M0 0 C0.66 0.33 1.32 0.66 2 1 C2.04954711 5.05676492 2.085789 9.11341194 2.10986328 13.17041016 C2.11990253 14.54967315 2.13353677 15.92891496 2.15087891 17.30810547 C2.17521754 19.2938514 2.18543255 21.2797545 2.1953125 23.265625 C2.20578613 24.45961914 2.21625977 25.65361328 2.22705078 26.88378906 C2.01034762 29.85798164 1.56186122 31.50318379 0 34 C-0.33 34 -0.66 34 -1 34 C-0.67 22.78 -0.34 11.56 0 0 Z " fill="#638CB3" transform="translate(94,96)"/>
<path d="M0 0 C3.31872048 0.06285455 4.05916436 0.41444291 7 2.375 C7.61829563 6.34975764 7.31867116 7.9169102 5 11.25 C4.34 11.95125 3.68 12.6525 3 13.375 C2.34 13.045 1.68 12.715 1 12.375 C1.33 12.045 1.66 11.715 2 11.375 C2.04092937 9.04202567 2.04241723 6.70794775 2 4.375 C1.071875 4.375 0.14375 4.375 -0.8125 4.375 C-2.875 4.375 -4.9375 4.375 -7 4.375 C-5.23371791 0.84243582 -3.80905502 0.07001939 0 0 Z " fill="#5482AF" transform="translate(178,79.625)"/>
<path d="M0 0 C0.33 0 0.66 0 1 0 C1 12.21 1 24.42 1 37 C0.01 37 -0.98 37 -2 37 C-1.34 24.79 -0.68 12.58 0 0 Z " fill="#1961AE" transform="translate(149,200)"/>
<path d="M0 0 C0.33 0 0.66 0 1 0 C1.08082094 1.95766281 1.13910778 3.91626728 1.1875 5.875 C1.23970703 7.51082031 1.23970703 7.51082031 1.29296875 9.1796875 C1.19628906 10.11039063 1.09960938 11.04109375 1 12 C-2.32853221 14.21902147 -3.55514005 14.21241202 -7.4375 14.3125 C-11.90927908 14.54444409 -11.90927908 14.54444409 -15.3125 17.3125 C-15.869375 18.199375 -16.42625 19.08625 -17 20 C-18.95851344 21.39355764 -20.95127113 22.74282547 -23 24 C-21.43873668 20.16780823 -18.97133075 17.82638778 -16 15 C-15.33484375 14.19755859 -15.33484375 14.19755859 -14.65625 13.37890625 C-11.88358629 11.07053293 -8.75913841 11.52895642 -5.27734375 11.40625 C-4.52582031 11.2721875 -3.77429688 11.138125 -3 11 C-1.06604999 8.09907498 -0.69868059 7.10325263 -0.375 3.8125 C-0.25125 2.554375 -0.1275 1.29625 0 0 Z " fill="#5B89B5" transform="translate(151,19)"/>
<path d="M0 0 C0.66 0 1.32 0 2 0 C2.10794277 2.26979665 2.18556176 4.54105196 2.25 6.8125 C2.29640625 8.07707031 2.3428125 9.34164063 2.390625 10.64453125 C2 14 2 14 0.34375 15.96875 C-2.63740762 17.28045935 -4.53624906 17.10834834 -7.75 16.6875 C-8.73484375 16.56761719 -9.7196875 16.44773437 -10.734375 16.32421875 C-11.48203125 16.21722656 -12.2296875 16.11023438 -13 16 C-12.67 15.34 -12.34 14.68 -12 14 C-10.00390625 13.62109375 -10.00390625 13.62109375 -7.5625 13.4375 C-4.15371795 13.1938825 -4.15371795 13.1938825 -1 12 C-0.53101037 9.1840151 -0.53101037 9.1840151 -0.375 5.9375 C-0.30023438 4.83277344 -0.22546875 3.72804688 -0.1484375 2.58984375 C-0.09945312 1.73519531 -0.05046875 0.88054688 0 0 Z " fill="#3578BE" transform="translate(152,19)"/>
<path d="M0 0 C1.56369894 3.12739788 1.03702578 6.43405346 0.95703125 9.859375 C0.93463182 11.46613334 0.91317764 13.07290508 0.89257812 14.6796875 C0.85556479 17.21228239 0.81263635 19.74419372 0.75317383 22.27636719 C0.69844411 24.72080192 0.66951914 27.16447841 0.64453125 29.609375 C0.62074905 30.35958923 0.59696686 31.10980347 0.57246399 31.88275146 C0.54564379 37.30663022 1.72538415 39.90117212 5 44 C4.67 44.66 4.34 45.32 4 46 C0.17789837 43.53412798 0.17789837 43.53412798 -0.62081909 41.1360321 C-1.25572266 37.55944274 -1.14189047 33.95303406 -1.1328125 30.33203125 C-1.13376923 29.49661301 -1.13472595 28.66119476 -1.13571167 27.80046082 C-1.13639085 26.03958053 -1.13455484 24.27869771 -1.13037109 22.51782227 C-1.12499892 19.81195522 -1.13033526 17.10625265 -1.13671875 14.40039062 C-1.13605832 12.6901038 -1.13477788 10.97981707 -1.1328125 9.26953125 C-1.13483673 8.45603714 -1.13686096 7.64254303 -1.13894653 6.80439758 C-1.11496425 1.11496425 -1.11496425 1.11496425 0 0 Z " fill="#3272B3" transform="translate(71,175)"/>
<path d="M0 0 C3.3 0 6.6 0 10 0 C9.34 0.66 8.68 1.32 8 2 C6.88625 1.8453125 6.88625 1.8453125 5.75 1.6875 C2.40231635 2.0679186 2.11530356 2.71228222 0.0625 5.25 C-0.43378906 5.88550781 -0.93007812 6.52101563 -1.44140625 7.17578125 C-3.65563113 9.76736776 -6.0843068 11.26446833 -9 13 C-8.44225728 9.76509224 -7.62788492 8.02144994 -5 6 C-4.01 6 -3.02 6 -2 6 C-1.855625 5.38125 -1.71125 4.7625 -1.5625 4.125 C-1 2 -1 2 0 0 Z " fill="#1C6FC6" transform="translate(139,35)"/>
<path d="M0 0 C0.66 0.33 1.32 0.66 2 1 C1.54625 1.391875 1.0925 1.78375 0.625 2.1875 C-1.14531091 3.915759 -1.14531091 3.915759 -1.75 6.3125 C-3.57205298 10.2299139 -6.637794 12.38395201 -10 15 C-10.66 14.67 -11.32 14.34 -12 14 C-10.47793991 11.37098712 -9.15634036 9.15634036 -7 7 C-6.01 7 -5.02 7 -4 7 C-3.896875 6.401875 -3.79375 5.80375 -3.6875 5.1875 C-2.91123545 2.71756736 -1.92911079 1.67748765 0 0 Z " fill="#839BAB" transform="translate(136,29)"/>
<path d="M0 0 C0.55816406 0.32226562 1.11632812 0.64453125 1.69140625 0.9765625 C4.25508086 2.11308153 6.14888864 2.26328367 8.9375 2.375 C13.4194734 2.74519249 15.87347555 3.57090867 19 7 C19.33 7.99 19.66 8.98 20 10 C17 9 17 9 15 6 C12.98864629 5.78734922 12.98864629 5.78734922 10.75 6.0625 C5.85268764 6.24446799 3.67333548 5.20239504 0 2 C0 1.34 0 0.68 0 0 Z " fill="#2A78C9" transform="translate(94,31)"/>
<path d="M0 0 C1.13598633 0.00483398 1.13598633 0.00483398 2.29492188 0.00976562 C3.47344727 0.02233398 3.47344727 0.02233398 4.67578125 0.03515625 C5.47306641 0.03966797 6.27035156 0.04417969 7.09179688 0.04882812 C9.05732382 0.06059775 11.0228121 0.07853277 12.98828125 0.09765625 C12.98828125 0.75765625 12.98828125 1.41765625 12.98828125 2.09765625 C13.97828125 2.42765625 14.96828125 2.75765625 15.98828125 3.09765625 C15.65828125 4.41765625 15.32828125 5.73765625 14.98828125 7.09765625 C14.43140625 6.27265625 13.87453125 5.44765625 13.30078125 4.59765625 C10.35435948 1.60028771 7.56972093 1.70175643 3.48828125 1.66015625 C-0.82728607 1.74586261 -4.08966277 2.27565636 -8.01171875 4.09765625 C-7.68171875 3.10765625 -7.35171875 2.11765625 -7.01171875 1.09765625 C-4.30455633 0.19526878 -2.77395107 -0.02085677 0 0 Z " fill="#2869AC" transform="translate(125.01171875,229.90234375)"/>
<path d="M0 0 C1.485 0.99 1.485 0.99 3 2 C3.26711404 4.55395487 3.34849029 6.86274374 3.29296875 9.4140625 C3.28872391 10.14370209 3.28447906 10.87334167 3.28010559 11.62509155 C3.26329353 13.95876759 3.22563868 16.2915844 3.1875 18.625 C3.17245634 20.20571671 3.15876738 21.78644693 3.14648438 23.3671875 C3.11338201 27.24512344 3.06158404 31.12241598 3 35 C2.67 35 2.34 35 2 35 C1.97494385 34.08186523 1.9498877 33.16373047 1.92407227 32.21777344 C1.8287973 28.80342975 1.72957222 25.38924797 1.62768555 21.97509766 C1.58443965 20.4989061 1.54275744 19.02266785 1.50268555 17.54638672 C1.44473154 15.42140652 1.38111054 13.29665907 1.31640625 11.171875 C1.27974854 9.8940918 1.24309082 8.61630859 1.20532227 7.29980469 C1.04236741 4.68090127 0.77053197 2.48983284 0 0 Z " fill="#3378C0" transform="translate(95,92)"/>
<path d="M0 0 C1.32 0.33 2.64 0.66 4 1 C3.71905418 2.8141927 3.42493567 4.62635001 3.125 6.4375 C2.88136719 7.95150391 2.88136719 7.95150391 2.6328125 9.49609375 C2.42398438 10.32238281 2.21515625 11.14867187 2 12 C1.01 12.495 1.01 12.495 0 13 C0 8.71 0 4.42 0 0 Z " fill="#1D6DC2" transform="translate(154,19)"/>
<path d="M0 0 C3.890625 1.7734375 3.890625 1.7734375 4.875 3.8125 C6.55805758 7.08511196 9.11451985 8.74179814 12 11 C11.67 11.66 11.34 12.32 11 13 C5.19286657 9.42637943 2.52651318 6.32412926 0 0 Z " fill="#5589BA" transform="translate(109,32)"/>
<path d="M0 0 C2.375 0.6875 2.375 0.6875 5 2 C6.3125 4.625 6.3125 4.625 7 7 C5.02 7 3.04 7 1 7 C0.67 4.69 0.34 2.38 0 0 Z " fill="#EEDC72" transform="translate(171,85)"/>
<path d="M0 0 C2.475 0.99 2.475 0.99 5 2 C5 2.99 5 3.98 5 5 C6.98 4.34 8.96 3.68 11 3 C10.34 4.65 9.68 6.3 9 8 C6.6875 7.8125 6.6875 7.8125 4 7 C2.25 4.5625 2.25 4.5625 1 2 C0.67 1.34 0.34 0.68 0 0 Z " fill="#6E93B2" transform="translate(117,39)"/>
<path d="M0 0 C2.97 0.495 2.97 0.495 6 1 C6 5.62 6 10.24 6 15 C5.67 15 5.34 15 5 15 C4.97421875 14.39671875 4.9484375 13.7934375 4.921875 13.171875 C4.62611413 7.93018499 4.62611413 7.93018499 1.9375 3.5625 C1.298125 3.046875 0.65875 2.53125 0 2 C0 1.34 0 0.68 0 0 Z " fill="#BDB595" transform="translate(85,171)"/>
<path d="M0 0 C2 2 2 2 2.125 4.625 C2.08375 5.40875 2.0425 6.1925 2 7 C0.68 7 -0.64 7 -2 7 C-2 5.02 -2 3.04 -2 1 C-1.34 0.67 -0.68 0.34 0 0 Z " fill="#C3B88F" transform="translate(177,221)"/>
<path d="M0 0 C2.97 0.495 2.97 0.495 6 1 C6 2.98 6 4.96 6 7 C5.01 7.495 5.01 7.495 4 8 C3.71125 7.195625 3.4225 6.39125 3.125 5.5625 C2.26737432 2.8673532 2.26737432 2.8673532 0 2 C0 1.34 0 0.68 0 0 Z " fill="#CDBF8E" transform="translate(173,123)"/>
<path d="M0 0 C1.65 0 3.3 0 5 0 C5 1.98 5 3.96 5 6 C3.68 5.67 2.36 5.34 1 5 C0.67 3.35 0.34 1.7 0 0 Z " fill="#B0A992" transform="translate(136,237)"/>
<path d="M0 0 C1.32 0.99 2.64 1.98 4 3 C3.67 3.99 3.34 4.98 3 6 C1.68 5.67 0.36 5.34 -1 5 C-0.67 3.35 -0.34 1.7 0 0 Z " fill="#CCBE8B" transform="translate(158,158)"/>
<path d="M0 0 C4.875 0.875 4.875 0.875 6 2 C6.04080783 3.99958364 6.04254356 6.00045254 6 8 C4.02696226 6.02696226 3.22854066 4.45708131 2 2 C1.34 1.34 0.68 0.68 0 0 Z " fill="#B5B09B" transform="translate(173,85)"/>
<path d="M0 0 C1.65 0 3.3 0 5 0 C4.67 1.65 4.34 3.3 4 5 C3.34 5 2.68 5 2 5 C1.34 3.35 0.68 1.7 0 0 Z " fill="#B1B0A0" transform="translate(87,85)"/>
<path d="M0 0 C0.33 0.66 0.66 1.32 1 2 C-0.32 3.32 -1.64 4.64 -3 6 C-3.33 4.35 -3.66 2.7 -4 1 C-2.68 0.67 -1.36 0.34 0 0 Z " fill="#CDBF89" transform="translate(161,188)"/>
<path d="M0 0 C0.66 0 1.32 0 2 0 C2 1.98 2 3.96 2 6 C0.68 6 -0.64 6 -2 6 C-1.125 1.125 -1.125 1.125 0 0 Z " fill="#0151CB" transform="translate(155,117)"/>
<path d="M0 0 C0.66 0.66 1.32 1.32 2 2 C1.01 2.495 1.01 2.495 0 3 C0 2.01 0 1.02 0 0 Z " fill="#497FB4" transform="translate(167,94)"/>
</svg>
